<?xml version="1.0" encoding="UTF-8" standalone="no"?>
<svg xmlns="http://www.w3.org/2000/svg" viewBox="0 0 800 300" width="800" height="300">
  <g fill="#FFFFFF">
    <path d="M144.8,69.4h30.5l77.8,190.5h-34.2l-17.1-44.1H120l-17.1,44.1H69.2L144.8,69.4z M193.3,183.6
      l-28.5-73.4l-28.5,73.4H193.3z"/>
    <path d="M266.4,69.4h31.7l65.3,114.5V69.4h32.9v190.5h-31.7l-65.3-114.5v114.5h-32.9V69.4z"/>
    <path d="M440.9,69.4H478l82.1,127.7V69.4h33v190.5h-37.2l-82.1-127.7v127.7h-32.9V69.4z"/>
    <path d="M617.4,69.4h100.1v32.3h-67.1v44.7h60.2v32.3h-60.2v48.8h67.1v32.3H617.4V69.4z"/>
    <path d="M129.9,412.5h115.3v36.7H169v51.5h67.5v36.7H169v89.2h-39.1V412.5z"/>
    <path d="M256.3,412.5h39.1v177.4h67.5v36.7H256.3V412.5z"/>
    <path d="M377.9,412.5h39.1v214.1h-39.1V412.5z"/>
    <path d="M435.8,412.5h109.4l44.8,214.1h-40.9l-9-45.1H458l-9,45.1h-37.2L435.8,412.5z M454.9,480.1
      l-15.8,66.4h80.6l-15.8-66.4l-24.5-16.4L454.9,480.1z"/>
    <path d="M598.1,412.5h39.1v177.4h67.5v36.7H598.1V412.5z"/>
  </g>
</svg>